# AST/ASF file generated using VICON BodyLanguage
# -----------------------------------------------
:version 1.10
:name VICON
:units
  mass 1.0
  length 0.45
  angle deg
:documentation
   .ast/.asf automatically generated from VICON data using
   VICON BodyBuilder and BodyLanguage model FoxedUp or BRILLIANT.MOD
:root
   order TX TY TZ RX RY RZ
   axis XYZ
   position 0 0 0  
   orientation 0 0 0 
:bonedata
  begin
     id 1 
     name lhipjoint
     direction 0.499407 -0.589134 0.635228 
     length 2.99786 
     axis 0 0 0  XYZ
  end
  begin
     id 2 
     name lfemur
     direction 0.34202 -0.939693 0  
     length 6.89561  
     axis 0 0 20  XYZ
    dof rx ry rz
    limits (-160.0 20.0)
           (-70.0 70.0)
           (-60.0 70.0)
  end
  begin
     id 3 
     name ltibia
     direction 0.34202 -0.939693 0   
     length 8.00494   
     axis 0 0 20   XYZ
    dof rx
    limits (-10.0 170.0)
  end
  begin
     id 4 
     name lfoot
     direction 0.0680929 -0.194353 0.978565   
     length 2.06695   
     axis -90 7.62852e-016 20   XYZ
    dof rx rz
    limits (-45.0 90.0)
           (-70.0 20.0)
  end
  begin
     id 5 
     name ltoes
     direction 1.5346e-011 -4.21731e-011 1   
     length 1.04539   
     axis -90 7.62852e-016 20   XYZ
    dof rx
    limits (-90.0 20.0)
  end
  begin
     id 6 
     name rhipjoint
     direction -0.347526 -0.63762 0.687508   
     length 2.76989  
     axis 0 0 0  XYZ 
  end
  begin
     id 7 
     name rfemur
     direction -0.34202 -0.939693 0   
     length 6.97892   
     axis 0 0 -20   XYZ
    dof rx ry rz
    limits (-160.0 20.0)
           (-70.0 70.0)
           (-70.0 60.0)
  end
  begin
     id 8 
     name rtibia
     direction -0.34202 -0.939693 0   
     length 7.77056   
     axis 0 0 -20   XYZ
    dof rx
    limits (-10.0 170.0)
 end
 begin
     id 9 
     name rfoot
     direction -0.102685 -0.282124 0.953867   
     length 2.15099  
     axis -90 -7.62852e-016 -20   XYZ
    dof rx rz
    limits (-45.0 90.0)
           (-20.0 70.0)
  end
  begin
     id 10 
     name rtoes
     direction -0.000106751 -0.00118973 0.999999   
     length 1.0765   
     axis -90 -7.62852e-016 -20   XYZ
    dof rx
    limits (-90.0 20.0)
  end
  begin
     id 11 
     name lowerback
     direction -0.0190651 0.988667 0.148909   
     length 1.90627   
     axis 0 0 0   XYZ
    dof rx ry rz
    limits (-20.0 45.0)
           (-30.0 30.0)
           (-30.0 30.0)
  end
  begin
     id 12 
     name upperback
     direction -0.0180344 0.995767 -0.0901298   
     length 1.88167   
     axis 0 0 0   XYZ
    dof rx ry rz
    limits (-20.0 45.0)
           (-30.0 30.0)
           (-30.0 30.0)
  end
  begin
     id 13 
     name thorax
     direction -0.00329861 0.986394 -0.164366   
     length 1.91528   
     axis 0 0 0   XYZ
    dof rx ry rz
    limits (-20.0 45.0)
           (-30.0 30.0)
           (-30.0 30.0)
  end
  begin
     id 14 
     name lowerneck
     direction -0.0177752 0.978637 -0.204826   
     length 2.09812   
     axis 0 0 0   XYZ
    dof rx ry rz
    limits (-20.0 45.0)
           (-30.0 30.0)
           (-30.0 30.0)
  end
  begin
     id 15 
     name upperneck
     direction 0.108032 0.994134 0.00511541   
     length 2.11937   
     axis 0 0 0   XYZ
    dof rx ry rz
    limits (-20.0 45.0)
           (-30.0 30.0)
           (-30.0 30.0)
  end
  begin
     id 16
     name head
     direction 0.0423659 0.998938 0.0181058  
     length 2.14816  
     axis 0 0 0   XYZ
    dof rx ry rz
    limits (-20.0 45.0)
           (-30.0 30.0)
           (-30.0 30.0)
  end
  begin
     id 17 
     name lclavicle
     direction 0.869509 0.396908 0.293968  
     length 4.73713  
     axis 0 0 0   XYZ
    dof ry rz
    limits (-20.0 10.0)
           (0.0 20.0)
  end
  begin
     id 18 
     name lhumerus
     direction 1 -4.49e-011 3.63829e-027   
     length 4.72096   
     axis 180 -30 -90   XYZ
    dof rx ry rz
    limits (-60.0 90.0)
           (-90.0 90.0)
           (-90.0 90.0)
  end
  begin
     id 19
     name lradius
     direction 1 -4.48932e-011 7.19196e-027   
     length 3.18148   
     axis 180 -30 -90   XYZ
    dof rx
    limits (-10.0 170.0)
  end
  begin
     id 20
     name lwrist
     direction 1 -4.48995e-011 1.85462e-026   
     length 1.59074   
     axis -1.20349e-014 90 90   XYZ
    dof ry
    limits (-180.0 0.0)
 end
  begin
     id 21 
     name lhand
     direction 1 -4.48943e-011 3.70924e-026   
     length 0.848715   
     axis -2.36681e-014 90 90   XYZ
    dof rx rz
    limits (-90.0 90.0)
           (-45.0 45.0)
  end
  begin
     id 22 
     name lfingers
     direction 1 -4.48949e-011 7.41849e-026   
     length 0.684256   
     axis -4.73363e-014 90 90   XYZ
    dof rx
    limits (0.0 90.0)
  end
  begin
     id 23
     name lthumb
     direction 0.707107 -6.35018e-011 0.707107   
     length 0.982458   
     axis -90 45 2.85299e-015   XYZ
    dof rx rz
    limits (-45.0 45.0)
           (-45.0 45.0)
  end
  begin
     id 24 
     name rclavicle
     direction -0.923214 0.372787 0.0932992   
     length 4.28107  
     axis 0 0 0   XYZ 
    dof ry rz
    limits (-10.0 20.0)
           (-20.0 0.0)
  end
  begin
     id 25 
     name rhumerus
     direction -1 -4.48968e-011 6.59881e-018  
     length 4.76918   
     axis 180 30 90   XYZ
    dof rx ry rz
    limits (-90.0 60.0)
           (-90.0 90.0)
           (-90.0 90.0)
  end
  begin
     id 26 
     name rradius
     direction -1 0.000264575 -0.000152753   
     length 3.36438   
     axis 180 30 90   XYZ
    dof rx
    limits (-10.0 170.0)
  end
  begin
     id 27 
     name rwrist
     direction -1 -4.86632e-005 -0.00030086   
     length 1.68219   
     axis -1.20349e-014 -90 -90   XYZ
    dof ry
    limits (-180.0 0.0)
  end
  begin
     id 28
     name rhand
     direction -1 -4.48915e-011 3.70924e-026   
     length 0.767694   
     axis -2.36681e-014 -90 -90   XYZ
    dof rx rz
    limits (-90.0 90.0)
           (-45.0 45.0)
  end
  begin
     id 29
     name rfingers
     direction -1 -4.49015e-011 7.41849e-026   
     length 0.618935   
     axis -4.73363e-014 -90 -90   XYZ
    dof rx
    limits (0.0 90.0)
  end
  begin
     id 30
     name rthumb
     direction -0.707107 -6.34859e-011 0.707107   
     length 0.88867   
     axis -90 -45 -2.85299e-015   XYZ
    dof rx rz
    limits (-45.0 45.0)
           (-45.0 45.0)
  end
:hierarchy
  begin
    root lhipjoint rhipjoint lowerback
    lhipjoint lfemur
    lfemur ltibia
    ltibia lfoot
    lfoot ltoes
    rhipjoint rfemur
    rfemur rtibia
    rtibia rfoot
    rfoot rtoes
    lowerback upperback
    upperback thorax
    thorax lowerneck lclavicle rclavicle
    lowerneck upperneck
    upperneck head
    lclavicle lhumerus
    lhumerus lradius
    lradius lwrist
    lwrist lhand lthumb
    lhand lfingers
    rclavicle rhumerus
    rhumerus rradius
    rradius rwrist
    rwrist rhand rthumb
    rhand rfingers
  end

#!OML:ASF C:\Documents and Settings\Administrator\Desktop\New Folder (2)\VR_Jason.ASF
:FULLY-SPECIFIED
:DEGREES
426
root 1.31999 17.577 -0.533218 14.0072 -3.82852 -0.209539
lowerback -20.222 0.285615 -0.233405
upperback 5.60578 0.870922 -2.46975
thorax 18.1256 0.568778 -2.46555
lowerneck 26.4207 -7.2213 -11.5419
upperneck -1.31058 -11.2155 26.5731
head -2.57516 -7.35205 11.7285
rclavicle -2.38542e-015 -6.36111e-015
rhumerus 18.3261 35.598 -3.15631
rradius 82.1
rwrist -64.9006
rhand 34.8643 12.7177
rfingers 7.12502
rthumb 58.0189 -2.98674
lclavicle -2.38542e-015 -6.36111e-015
lhumerus 35.829 -29.9152 -7.51792
lradius 79.4765
lwrist 72.1504
lhand 36.9836 37.4129
lfingers 7.12502
lthumb 59.8512 51.3484
rfemur -22.571 -3.28009 5.89775
rtibia 23.7168
rfoot -2.87964 -22.4358
rtoes -19.3103
lfemur -27.7717 3.32873 -20.9636
ltibia 33.214
lfoot -21.4372 11.4906
ltoes -14.3149
427
root 1.33726 17.579 -0.522308 14.1361 -3.73195 -0.0921509
lowerback -20.3667 0.23086 -0.331439
upperback 5.77155 0.831604 -2.4723
thorax 18.4259 0.544743 -2.43295
lowerneck 26.1501 -7.30988 -11.2857
upperneck -1.45133 -11.2174 26.4847
head -2.59312 -7.3378 11.6338
rclavicle 1.98785e-016 -1.59028e-015
rhumerus 17.4411 37.2155 -0.70504
rradius 84.1016
rwrist -62.3884
rhand 34.404 12.6226
rfingers 7.12502
rthumb 57.6167 -3.43775
lclavicle 1.98785e-016 -1.59028e-015
lhumerus 35.6885 -31.3537 -10.2401
lradius 80.7335
lwrist 69.5676
lhand 38.8946 38.8653
lfingers 7.12502
lthumb 61.4727 51.0007
rfemur -22.6489 -3.53674 5.70723
rtibia 23.7561
rfoot -3.22751 -22.3314
rtoes -18.4825
lfemur -27.8618 3.34579 -21.1836
ltibia 33.1349
lfoot -21.5215 11.391
ltoes -15.0851
428
root 1.35518 17.5853 -0.517431 14.3043 -3.719 -0.0959456
lowerback -20.4132 0.23432 -0.34841
upperback 5.77163 0.833229 -2.42178
thorax 18.4541 0.539195 -2.36337
lowerneck 26.4505 -7.29998 -11.297
upperneck -1.69795 -11.1657 26.6206
head -2.71576 -7.34847 11.722
rclavicle -5.76476e-015 1.59028e-015
rhumerus 16.2307 38.6174 0.957588
rradius 85.6322
rwrist -58.3548
rhand 36.0517 12.5257
rfingers 7.12502
rthumb 59.0496 -2.21514
lclavicle -5.76476e-015 1.59028e-015
lhumerus 35.1588 -32.933 -12.1127
lradius 81.7107
lwrist 66.1557
lhand 40.2935 39.8224
lfingers 7.12502
lthumb 62.638 50.4986
rfemur -22.8374 -3.51538 5.63221
rtibia 23.8125
rfoot -2.90394 -22.2802
rtoes -19.0125
lfemur -28.01 3.42694 -21.2767
ltibia 33.0453
lfoot -21.6183 11.0953
ltoes -14.2519
429
root 1.37585 17.5947 -0.512128 14.5198 -3.66467 -0.164285
lowerback -20.4552 0.27849 -0.257711
upperback 5.70045 0.849817 -2.32386
thorax 18.3893 0.54698 -2.29188
lowerneck 26.7281 -7.29608 -11.4493
upperneck -1.87983 -11.1771 26.7919
head -2.79259 -7.38729 11.845
rclavicle 1.98785e-015 -1.27222e-014
rhumerus 14.8116 39.7069 2.05004
rradius 86.6604
rwrist -52.791
rhand 38.8658 12.6064
rfingers 7.12502
rthumb 61.4485 0.442378
lclavicle 1.98785e-015 -1.27222e-014
lhumerus 34.3555 -34.3843 -13.0277
lradius 82.2207
lwrist 61.9453
lhand 40.9976 40.2025
lfingers 7.12502
lthumb 63.2168 50.094
rfemur -23.0836 -3.48847 5.61426
rtibia 23.8942
rfoot -2.55624 -22.2569
rtoes -19.6376
lfemur -28.2117 3.4552 -21.3074
ltibia 32.9647
lfoot -21.4352 10.8728
ltoes -13.0427
430
root 1.39379 17.6011 -0.511789 14.6848 -3.49025 -0.105798
lowerback -20.4445 0.24389 -0.290786
upperback 5.65312 0.79903 -2.25575
thorax 18.3175 0.514054 -2.20912
lowerneck 26.9401 -7.27855 -11.4727
upperneck -2.16494 -11.1125 26.8358
head -2.9184 -7.38045 11.8949
rclavicle 2.78299e-015 2.38542e-015
rhumerus 13.3884 40.162 2.59799
rradius 87.2466
rwrist -46.3561
rhand 42.3121 12.1543
rfingers 7.12502
rthumb 64.2819 3.82547
lclavicle 2.78299e-015 2.38542e-015
lhumerus 33.6624 -35.5447 -13.5196
lradius 82.2382
lwrist 57.1248
lhand 41.1906 40.3679
lfingers 7.12502
lthumb 63.3745 50.0383
rfemur -23.2495 -3.37103 5.4434
rtibia 23.9616
rfoot -2.38534 -22.4996
rtoes -19.8459
lfemur -28.3927 3.43406 -21.4475
ltibia 32.891
lfoot -21.1429 10.6938
ltoes -13.2723
431
root 1.40483 17.606 -0.511264 14.7872 -3.27905 -0.0630156
lowerback -20.4466 0.145995 -0.42729
upperback 5.66729 0.690224 -2.17102
thorax 18.3286 0.443681 -2.07003
lowerneck 27.1376 -7.23871 -11.3929
upperneck -2.55677 -10.9659 26.8352
head -3.09908 -7.33438 11.9124
rclavicle 3.97569e-015 3.18055e-015
rhumerus 12.1392 40.1804 2.7009
rradius 87.3108
rwrist -38.9732
rhand 45.0164 11.6814
rfingers 7.12502
rthumb 66.3994 7.02127
lclavicle 3.97569e-015 3.18055e-015
lhumerus 33.0382 -36.4755 -13.9461
lradius 81.9407
lwrist 51.6654
lhand 41.0587 39.8241
lfingers 7.12502
lthumb 63.2668 49.646
rfemur -23.3118 -2.94813 5.27346
rtibia 24.0173
rfoot -2.12479 -23.0466
rtoes -20.2081
lfemur -28.5119 3.44305 -21.5285
ltibia 32.818
lfoot -21.0213 10.4994
ltoes -13.7076
432
root 1.41862 17.6105 -0.507746 14.8974 -3.14148 -0.0823428
lowerback -20.4718 0.0980887 -0.495483
upperback 5.62281 0.626464 -2.07063
thorax 18.2825 0.398633 -1.93428
lowerneck 27.4735 -7.20079 -11.3144
upperneck -2.87142 -10.845 26.7651
head -3.27511 -7.30068 11.9124
rclavicle -5.96354e-016 8.74653e-015
rhumerus 10.8176 40.1629 2.53167
rradius 87.0748
rwrist -31.2032
rhand 46.2514 10.8928
rfingers 7.12502
rthumb 67.3274 8.14008
lclavicle -5.96354e-016 8.74653e-015
lhumerus 32.5595 -37.4017 -14.2797
lradius 81.3287
lwrist 45.3832
lhand 39.9607 38.5038
lfingers 7.12502
lthumb 62.3626 49.5387
rfemur -23.3907 -2.6957 5.17195
rtibia 24.0758
rfoot -2.12564 -23.3803
rtoes -20.1533
lfemur -28.6131 3.47045 -21.5712
ltibia 32.7362
lfoot -20.9925 10.3964
ltoes -13.8021
433
root 1.43871 17.6123 -0.507962 14.9872 -3.07197 0.0192062
lowerback -20.353 0.0981775 -0.532117
upperback 5.52295 0.635732 -2.09225
thorax 18.0803 0.398497 -1.9317
lowerneck 27.6585 -7.22174 -11.1236
upperneck -2.98762 -10.799 26.6446
head -3.36255 -7.28577 11.8535
rclavicle -3.77691e-015 4.77083e-015
rhumerus 9.25656 39.8341 1.81833
rradius 86.4081
rwrist -23.4031
rhand 46.4689 10.5065
rfingers 7.12502
rthumb 67.488 8.10653
lclavicle -3.77691e-015 4.77083e-015
lhumerus 32.3277 -38.2639 -14.5227
lradius 80.2707
lwrist 38.5197
lhand 37.7639 37.0746
lfingers 7.12502
lthumb 60.5171 50.3004
rfemur -23.5031 -2.95611 4.98103
rtibia 24.1147
rfoot -1.87322 -23.1662
rtoes -20.4618
lfemur -28.7008 3.51084 -21.7973
ltibia 32.6401
lfoot -20.8509 10.2358
ltoes -13.7019
434
root 1.45652 17.6137 -0.511584 15.0365 -2.92545 0.126876
lowerback -20.058 0.0991924 -0.523231
upperback 5.39935 0.638963 -2.1706
thorax 17.7388 0.404528 -2.02125
lowerneck 27.5461 -7.31119 -10.9652
upperneck -2.82895 -10.8864 26.7093
head -3.28792 -7.32402 11.8366
rclavicle -3.18055e-015 -4.77083e-015
rhumerus 7.62677 39.0656 0.390869
rradius 85.0379
rwrist -15.423
rhand 45.5697 10.53
rfingers 7.12502
rthumb 66.8185 6.70495
lclavicle -3.18055e-015 -4.77083e-015
lhumerus 32.0053 -39.041 -14.5179
lradius 78.9364
lwrist 31.302
lhand 35.4441 35.7027
lfingers 7.12502
lthumb 58.5234 50.945
rfemur -23.4685 -2.86062 4.67944
rtibia 24.109
rfoot -2.29797 -23.2296
rtoes -19.6303
lfemur -28.7691 3.52775 -22.0158
ltibia 32.5452
lfoot -20.6806 10.1333
ltoes -14.1748
435
root 1.46701 17.6174 -0.514541 15.0396 -2.72335 0.130677
lowerback -19.8092 0.123141 -0.49352
upperback 5.35586 0.660944 -2.19226
thorax 17.5284 0.417489 -2.05195
lowerneck 27.2614 -7.44404 -10.8272
upperneck -2.65432 -11.0329 26.8508
head -3.16594 -7.38578 11.8384
rclavicle -4.17448e-015 -1.59028e-015
rhumerus 5.87298 37.7857 -1.39454
rradius 83.2235
rwrist -7.98644
rhand 43.2111 10.3193
rfingers 7.12502
rthumb 64.9976 3.13841
lclavicle -4.17448e-015 -1.59028e-015
lhumerus 31.8731 -39.6129 -14.2364
lradius 77.0917
lwrist 23.8601
lhand 32.6832 34.1922
lfingers 7.12502
lthumb 56.1017 51.5028
rfemur -23.278 -2.02446 4.36964
rtibia 24.0652
rfoot -3.8701 -23.9587
rtoes -16.9989
lfemur -28.7844 3.58373 -22.0655
ltibia 32.4682
lfoot -20.669 9.88328
ltoes -14.8235
436
root 1.4798 17.6191 -0.514725 15.0089 -2.44188 0.0935062
lowerback -19.7671 0.13643 -0.443233
upperback 5.44865 0.660122 -2.1507
thorax 17.6181 0.420347 -2.03406
lowerneck 26.8831 -7.56427 -10.6427
upperneck -2.66947 -11.1162 26.8611
head -3.10573 -7.40768 11.7806
rclavicle -8.15017e-015 -7.95139e-016
rhumerus 4.07776 35.8246 -3.32534
rradius 81.1728
rwrist -1.28331
rhand 39.2775 10.0501
rfingers 7.12502
rthumb 61.7936 -1.69837
lclavicle -8.15017e-015 -7.95139e-016
lhumerus 31.9853 -39.9191 -13.6999
lradius 74.5707
lwrist 16.4588
lhand 29.2117 32.5452
lfingers 7.12502
lthumb 52.9968 52.0395
rfemur -23.0718 -1.62088 4.22776
rtibia 23.996
rfoot -4.73394 -24.4795
rtoes -15.754
lfemur -28.7324 3.5223 -22.0577
ltibia 32.4172
lfoot -20.6718 9.64589
ltoes -15.3952
437
root 1.49541 17.6151 -0.514173 14.9663 -2.00426 0.169503
lowerback -19.7986 0.0709818 -0.511646
upperback 5.53822 0.578457 -2.06436
thorax 17.7454 0.371043 -1.92445
lowerneck 26.7628 -7.609 -10.7354
upperneck -2.7857 -11.1728 26.9871
head -3.09851 -7.44013 11.8407
rclavicle 2.98177e-015 7.15625e-015
rhumerus 2.49751 33.5118 -5.20326
rradius 78.8398
rwrist 5.22551
rhand 33.6941 10.069
rfingers 7.12502
rthumb 56.9939 -6.52209
lclavicle 2.98177e-015 7.15625e-015
lhumerus 32.1021 -40.1561 -12.8422
lradius 71.7391
lwrist 9.46562
lhand 25.6906 31.2454
lfingers 7.12502
lthumb 49.7944 52.5754
rfemur -22.8235 -1.88824 4.09837
rtibia 23.8993
rfoot -4.62856 -24.6403
rtoes -16.1105
lfemur -28.6945 3.19789 -22.1453
ltibia 32.3999
lfoot -20.6861 9.45349
ltoes -15.0746
438
root 1.51139 17.6144 -0.517955 15.0225 -1.62045 0.28405
lowerback -19.8154 0.0418857 -0.558795
upperback 5.57437 0.547341 -2.02999
thorax 17.7995 0.349818 -1.86901
lowerneck 26.6121 -7.67828 -10.8778
upperneck -2.88222 -11.2761 27.2338
head -3.06284 -7.50182 11.9529
rclavicle -7.95139e-016 1.35174e-014
rhumerus 1.06645 30.7568 -7.35114
rradius 76.1566
rwrist 11.5616
rhand 27.0274 10.1359
rfingers 7.12502
rthumb 51.0157 -10.5367
lclavicle -7.95139e-016 1.35174e-014
lhumerus 32.2623 -40.1783 -11.8131
lradius 68.6825
lwrist 2.95876
lhand 21.8299 30.1464
lfingers 7.12502
lthumb 46.2358 53.1421
rfemur -22.7064 -2.12321 3.91808
rtibia 23.7956
rfoot -4.2189 -24.7556
rtoes -16.7325
lfemur -28.8296 2.84259 -22.292
ltibia 32.4165
lfoot -20.6816 9.39861
ltoes -15.1505
439
root 1.53106 17.6168 -0.520654 15.1559 -1.40111 0.322083
lowerback -19.873 0.0931046 -0.431477
upperback 5.59724 0.586878 -2.04751
thorax 17.8679 0.383478 -1.94983
lowerneck 26.298 -7.79806 -10.8375
upperneck -3.02853 -11.3793 27.3944
head -3.03054 -7.55209 11.9887
rclavicle 1.39149e-015 0
rhumerus -0.247653 27.3627 -9.77294
rradius 73.3047
rwrist 17.648
rhand 19.4717 10.3711
rfingers 7.12502
rthumb 44.0426 -13.4959
lclavicle 1.39149e-015 0
lhumerus 32.3047 -39.7444 -10.4336
lradius 65.3905
lwrist -3.39798
lhand 17.6874 28.8935
lfingers 7.12502
lthumb 42.375 53.3567
rfemur -22.7555 -2.50908 3.83197
rtibia 23.7038
rfoot -3.23604 -24.5094
rtoes -17.9831
lfemur -29.031 2.66981 -22.425
ltibia 32.4535
lfoot -20.6343 9.37544
ltoes -15.6104
440
root 1.55264 17.6157 -0.520317 15.2494 -1.27526 0.411753
lowerback -19.9006 0.160522 -0.318244
upperback 5.60596 0.655377 -2.09004
thorax 17.9012 0.430155 -2.04122
lowerneck 26.1789 -7.89018 -10.8292
upperneck -3.27036 -11.4436 27.5548
head -3.06201 -7.59847 12.0508
rclavicle -7.7526e-015 -7.95139e-015
rhumerus -1.2532 23.4743 -12.1788
rradius 70.3027
rwrist 23.3595
rhand 10.9332 11.1488
rfingers 7.12502
rthumb 36.011 -15.165
lclavicle -7.7526e-015 -7.95139e-015
lhumerus 32.2291 -38.8953 -8.71094
lradius 62.0782
lwrist -9.23876
lhand 13.8525 27.8148
lfingers 7.12502
lthumb 38.7705 53.4002
rfemur -22.8098 -3.08899 3.71591
rtibia 23.6287
rfoot -2.30913 -24.0019
rtoes -18.8792
lfemur -29.1693 2.7147 -22.665
ltibia 32.4809
lfoot -20.533 9.29416
ltoes -15.8643
